<svg xmlns="http://www.w3.org/2000/svg" viewBox="0 0 120 100" fill="none">
  <path d="M16 58c0-27 19-46 44-46s44 19 44 46" stroke="#F5EDD8" stroke-width="3" stroke-linecap="round"/>
  <path d="M46 54C43 42 48 31 56 22c.8 8 4.5 13.5 10 17-8.5 1.5-15.5 7-20 15z" fill="#C9A24A"/>
  <path d="M60 24c3.5 8.5 4.5 17 2.5 25 7.5-4.5 12.5-12 14.5-21-7 .8-12-1.2-17-4z" fill="#E0BC5E"/>
  <path d="M74 54c3-12-2-23-10-32-.8 8-4.5 13.5-10 17 8.5 1.5 15.5 7 20 15z" fill="#C9A24A"/>
  <path d="M26 58c11 4.5 23 7.5 34 7.5S83 62.5 94 58v9c-11 5.5-23 9.5-34 9.5S37 72.5 26 67v-9z" fill="#F5EDD8"/>
  <path d="M60 50v24" stroke="#003B5C" stroke-width="2.5" stroke-linecap="round"/>
</svg>
